<svg width="249" height="246" viewBox="0 0 249 246" fill="none" xmlns="http://www.w3.org/2000/svg">
<path fill-rule="evenodd" clip-rule="evenodd" d="M217.5 39.616C217.5 40.06 218.9 40.912 220.612 41.509C223.222 42.419 223.539 42.372 222.579 41.215C221.246 39.609 217.5 38.43 217.5 39.616ZM36.25 42.7C34.189 43.901 33.846 49.852 35.75 51.374C36.438 51.924 41.275 54.246 46.5 56.534L56 60.694L66.465 111.907C76.737 162.182 76.987 163.18 80.115 166.37L83.3 169.62H137.9C191.167 169.62 192.549 169.571 194.5 167.62C195.6 166.52 196.5 164.72 196.5 163.62C196.5 162.52 195.6 160.72 194.5 159.62C192.551 157.671 191.167 157.62 140 157.62C96.121 157.62 87.5 157.394 87.5 156.245C87.5 155.489 87.219 153.464 86.875 151.745L86.25 148.62H140.359H194.468L197.552 145.865C200.524 143.209 200.87 141.976 207.193 111.436C211.375 91.241 213.51 78.798 213.085 77.104C212.719 75.643 211.332 73.362 210.005 72.034L207.591 69.62H139.021H70.45L69.56 67.279C69.071 65.991 68.35 62.799 67.958 60.186C67.566 57.573 66.29 54.373 65.123 53.075C62.749 50.436 43.42 41.603 40.121 41.65C38.954 41.667 37.212 42.139 36.25 42.7ZM50.927 49.204C56.684 51.725 61.921 54.422 62.564 55.197C63.207 55.972 64.469 60.096 65.369 64.363L67.006 72.12L136.503 72.62C174.726 72.895 206.59 73.501 207.312 73.967C210.548 76.057 210.343 79.226 205.418 103.209C197.995 139.358 197.484 141.494 195.861 143.116C194.558 144.419 186.878 144.62 138.429 144.62H82.5L82.506 146.87C82.509 148.108 82.915 150.695 83.409 152.62C83.902 154.545 84.583 157.358 84.922 158.87L85.538 161.62H139.019C191.833 161.62 192.5 161.645 192.5 163.62C192.5 165.596 191.833 165.62 138.071 165.62C89.924 165.62 83.462 165.439 82.071 164.049C81.207 163.184 80.485 162.397 80.466 162.299C80.447 162.2 75.589 138.742 69.67 110.169L58.908 58.217L48.969 53.884C37.878 49.048 36.977 48.425 37.836 46.187C38.689 43.965 39.269 44.098 50.927 49.204ZM228.545 46.175C229.255 47.03 230.773 48.216 231.918 48.81C233.776 49.775 233.739 49.608 231.576 47.256C229.015 44.472 226.34 43.517 228.545 46.175ZM236.532 54.179C236.514 54.761 237.161 56.111 237.968 57.179C238.776 58.246 239.451 58.644 239.468 58.061C239.486 57.479 238.839 56.129 238.032 55.061C237.224 53.994 236.549 53.596 236.532 54.179ZM240.6 64.811C240.655 65.531 241.06 67.245 241.5 68.62C242.265 71.007 242.305 70.976 242.4 67.929C242.455 66.174 242.05 64.46 241.5 64.12C240.95 63.78 240.545 64.091 240.6 64.811ZM240.528 78.046C238.961 82.167 239.462 83.582 241.132 79.754C241.94 77.902 242.366 76.152 242.078 75.865C241.791 75.578 241.093 76.559 240.528 78.046ZM68.5 78.732C68.5 80.106 80.337 137.64 80.976 139.37C81.337 140.349 93.452 140.62 136.95 140.62H192.462L192.995 138.37C193.289 137.132 196.017 123.97 199.058 109.12C202.099 94.27 204.842 81.108 205.152 79.87L205.717 77.62H137.108C87.437 77.62 68.5 77.927 68.5 78.732ZM200.466 83.37C200.448 84.333 198.056 96.595 195.152 110.62L189.871 136.12L136.847 136.379L83.823 136.637L78.587 110.879C75.708 96.711 73.13 84.333 72.858 83.37C72.392 81.716 75.895 81.62 136.433 81.62C196.795 81.62 200.498 81.721 200.466 83.37ZM234.104 89.284C232.922 90.904 232.701 91.72 233.518 91.447C235.096 90.921 238.113 86.607 236.872 86.651C236.392 86.669 235.147 87.853 234.104 89.284ZM47.5 93.62C46.362 94.356 46.784 94.593 49.25 94.605C51.038 94.613 52.5 94.17 52.5 93.62C52.5 92.35 49.465 92.35 47.5 93.62ZM101.7 93.82C99.627 95.893 100.272 100.425 102.885 102.137C104.949 103.489 109.673 103.66 137.967 103.41C168.998 103.135 170.735 103.021 172.082 101.179C173.934 98.644 173.879 96.142 171.929 94.191C170.562 92.825 165.958 92.62 136.629 92.62C111.729 92.62 102.586 92.934 101.7 93.82ZM36.25 95.309C35.288 95.561 34.5 96.16 34.5 96.641C34.5 97.386 40.181 96.014 41.417 94.972C41.971 94.504 38.453 94.734 36.25 95.309ZM170 97.62V100.12L137.064 100.384C118.133 100.536 103.739 100.259 103.215 99.735C102.712 99.232 102.603 97.87 102.972 96.707C103.64 94.604 103.814 94.595 136.822 94.857L170 95.12V97.62ZM225.25 96.378C221.505 98.7 221.739 100.182 225.5 97.961C227.15 96.986 228.5 95.836 228.5 95.404C228.5 94.377 228.458 94.389 225.25 96.378ZM25.5 100.62C24.125 101.696 23.513 102.586 24.139 102.598C24.766 102.61 26.341 101.735 27.639 100.653C30.711 98.094 28.768 98.064 25.5 100.62ZM17.944 109.064C17.001 110.504 16.454 111.907 16.729 112.182C17.004 112.457 18.001 111.504 18.944 110.064C19.888 108.625 20.435 107.221 20.16 106.946C19.885 106.671 18.888 107.625 17.944 109.064ZM105.155 116.449C102.984 118.848 103.055 121.907 105.329 123.965C106.943 125.426 110.592 125.62 136.394 125.62C154.636 125.62 166.359 125.231 167.566 124.585C168.901 123.87 169.5 122.487 169.5 120.12C169.5 117.753 168.901 116.37 167.566 115.655C166.358 115.009 154.582 114.62 136.221 114.62C108.998 114.62 106.687 114.756 105.155 116.449ZM166.834 118.786C167.596 119.995 167.523 120.887 166.57 122.036C165.426 123.414 161.509 123.62 136.413 123.62C108.94 123.62 107.521 123.528 106.537 121.689C105.756 120.23 105.89 119.372 107.089 118.174C108.474 116.789 112.268 116.623 137.228 116.855C162.609 117.091 165.9 117.305 166.834 118.786ZM14.5 120.787C14.5 124.428 14.937 124.296 15.878 120.37C16.27 118.737 16.124 117.62 15.519 117.62C14.959 117.62 14.5 119.045 14.5 120.787ZM15.258 132.135C15.522 133.518 16.212 134.942 16.789 135.299C17.451 135.708 17.592 135.301 17.17 134.202C16.801 133.242 16.5 131.818 16.5 131.038C16.5 130.258 16.112 129.62 15.639 129.62C15.165 129.62 14.994 130.752 15.258 132.135ZM19.673 141.638C20.199 143.216 24.513 146.233 24.469 144.992C24.451 144.512 23.267 143.267 21.836 142.224C20.216 141.042 19.4 140.821 19.673 141.638ZM28.5 148.434C28.5 149.448 33.541 151.912 34.222 151.231C34.477 150.976 33.294 150.048 31.593 149.168C29.892 148.288 28.5 147.958 28.5 148.434ZM64.5 151.62C63.258 152.423 63.344 152.589 65 152.589C66.1 152.589 67.675 152.153 68.5 151.62C69.742 150.817 69.656 150.651 68 150.651C66.9 150.651 65.325 151.087 64.5 151.62ZM41 153.62C43.791 154.819 46.741 154.819 46 153.62C45.66 153.07 43.946 152.652 42.191 152.69C39.501 152.75 39.314 152.896 41 153.62ZM53 153.62C51.314 154.344 51.501 154.49 54.191 154.55C55.946 154.588 57.66 154.17 58 153.62C58.741 152.421 55.791 152.421 53 153.62ZM102.52 175.87C95.133 179.645 91.996 186.117 93.725 194.02C95.504 202.155 101.33 206.623 110.151 206.616C121.406 206.608 129.074 195.648 125.102 185.247C123.167 180.182 119.313 176.331 114.601 174.756C109.721 173.125 107.489 173.331 102.52 175.87ZM156.407 175.945C150.236 179.201 147.299 184.475 147.794 191.411C148.919 207.183 168.236 212.354 177.798 199.444C178.89 197.969 179.996 194.514 180.262 191.742C180.915 184.949 177.387 178.712 171.198 175.716C165.61 173.011 161.859 173.069 156.407 175.945ZM117.201 178.58C123.25 182.268 125.433 191.498 121.75 197.811C119.639 201.428 113.793 204.621 109.29 204.616C99.298 204.605 92.443 192.772 97.25 183.835C100.983 176.895 110.379 174.42 117.201 178.58ZM169.816 177.745C176.925 181.406 179.703 188.18 177 195.259C175.06 200.338 171.682 203.308 166.802 204.223C152.999 206.813 144.095 189.891 154.273 180.41C155.773 179.013 157.675 177.624 158.5 177.324C161.171 176.352 167.573 176.59 169.816 177.745ZM193.6 180.811C193.655 181.531 194.06 183.245 194.5 184.62C195.265 187.007 195.305 186.976 195.4 183.929C195.455 182.174 195.05 180.46 194.5 180.12C193.95 179.78 193.545 180.091 193.6 180.811ZM103.955 185.075C102.407 186.622 101.5 188.672 101.5 190.62C101.5 192.568 102.407 194.618 103.955 196.165C109.035 201.246 117.5 197.605 117.5 190.34C117.5 183.313 109.015 180.014 103.955 185.075ZM158.525 184.595C155.413 187.707 154.928 191.376 157.222 194.457C161.433 200.114 168.326 199.529 171.34 193.259C172.911 189.992 171.472 185.211 168.429 183.582C165.456 181.991 160.636 182.484 158.525 184.595ZM113.5 186.62C116.707 189.827 116.032 193.25 111.75 195.505C109.114 196.894 106.152 195.708 104.488 192.597C103.727 191.176 103.763 189.987 104.615 188.37C106.87 184.088 110.293 183.413 113.5 186.62ZM167.671 186.275C169.884 188.278 170.065 192.906 167.997 194.623C167.17 195.309 165.372 195.87 164 195.87C160.635 195.87 158.5 193.912 158.5 190.826C158.5 185.548 163.905 182.866 167.671 186.275ZM192.806 194.62C192.183 196.27 192.041 197.62 192.489 197.62C192.937 197.62 193.775 196.27 194.35 194.62C194.925 192.97 195.068 191.62 194.667 191.62C194.266 191.62 193.429 192.97 192.806 194.62ZM186.5 204.12C185.212 205.491 184.384 206.837 184.659 207.112C184.934 207.387 186.212 206.491 187.5 205.12C188.788 203.749 189.616 202.403 189.341 202.128C189.066 201.853 187.788 202.749 186.5 204.12ZM177.073 212.141C176.013 212.943 175.387 213.84 175.681 214.135C175.976 214.429 177.293 213.774 178.608 212.678C181.343 210.401 179.996 209.93 177.073 212.141Z" fill="#757575"/>
<path fill-rule="evenodd" clip-rule="evenodd" d="M189.211 41.351C186.631 36.303 187.585 31.335 191.979 26.941C194.673 24.247 196.083 23.62 199.45 23.62C207.731 23.62 212.5 28.092 212.5 35.857C212.5 49.063 195.235 53.136 189.211 41.351ZM205.355 27.045C214.38 31.712 210.745 45.62 200.5 45.62C190.29 45.62 186.425 31.981 195.275 27.179C198.754 25.291 201.882 25.249 205.355 27.045ZM197.107 40.038C196.089 37.385 196.429 32.091 197.7 30.82C201.767 26.753 206.495 34.024 203.465 39.686C202.217 42.018 197.957 42.254 197.107 40.038ZM199.933 39.62C201.707 39.62 202.851 36.3 202 33.62C200.769 29.742 198.5 31.471 198.5 36.287C198.5 38.513 198.976 39.62 199.933 39.62Z" fill="#5726DF"/>
<path d="M7.23199 67.075C7.90999 66.867 8.75699 64.864 9.11499 62.625C9.84999 58.033 10.433 58.058 11.387 62.724C12.085 66.137 13.222 67.08 18 68.211L21 68.922L16.755 69.829C12.284 70.784 12.461 70.504 10.882 79.12L10.149 83.12L9.24301 76.913L8.33701 70.705L4.168 69.814L0 68.922L3 68.187C4.65 67.783 6.55399 67.283 7.23199 67.075Z" fill="#FFD659"/>
<path fill-rule="evenodd" clip-rule="evenodd" d="M74.75 2.385C72.413 3.697 70.5 5.246 70.5 5.827C70.5 6.656 73.623 12.502 75.128 14.491C75.471 14.944 84.5 9.725 84.5 9.075C84.5 8.821 83.262 6.676 81.75 4.307L79 0L74.75 2.385ZM78.938 10.253C81.152 8.802 81.316 8.31 80.315 6.113C79.088 3.42 77.979 3.111 75.25 4.7C73.148 5.925 73.073 7.472 74.994 10.01C76.34 11.787 76.574 11.801 78.938 10.253Z" fill="#1ABCFE"/>
<path fill-rule="evenodd" clip-rule="evenodd" d="M150.5 27.62C147.29 30.83 148.13 35.149 152.271 36.723C157.618 38.756 161.905 32.676 158.331 28.132C155.948 25.103 153.197 24.923 150.5 27.62ZM154.031 34.62C156.888 34.62 158.324 32.15 156.838 29.794C156.298 28.939 155.379 28.08 154.795 27.885C153.189 27.35 150.307 30.675 150.942 32.331C151.249 33.13 151.5 33.972 151.5 34.202C151.5 34.432 152.639 34.62 154.031 34.62Z" fill="#59AF59"/>
<path d="M237.264 120.705C238.859 121.701 239.65 121.629 241.524 120.316C243.748 118.758 244.591 118.843 247.239 120.889C249.19 122.397 247.627 123.716 245.479 122.375C243.97 121.433 243.283 121.437 242.325 122.395C240.632 124.088 237.002 123.929 235.48 122.096C233.77 120.035 234.847 119.195 237.264 120.705Z" fill="#29E870"/>
<path fill-rule="evenodd" clip-rule="evenodd" d="M208.654 191.8C206.369 194.826 204.5 197.767 204.5 198.336C204.5 198.905 205.906 199.651 207.625 199.995C211.948 200.86 219.51 200.78 219.451 199.87C219.425 199.457 217.919 196.235 216.106 192.709L212.808 186.297L208.654 191.8ZM215.256 198.197C215.455 197.999 214.939 196.213 214.11 194.228C213.28 192.244 212.467 190.626 212.301 190.632C212.221 190.635 211.922 190.988 211.5 191.559C211.043 192.177 210.443 193.05 209.819 194.013L207.638 197.381L211.267 197.97C213.262 198.293 215.057 198.396 215.256 198.197Z" fill="#FB2E86"/>
<ellipse cx="124" cy="240.5" rx="44" ry="5.5" fill="#D2D2D2"/>
</svg>
