<svg width="112" height="28" viewBox="0 0 112 28" fill="none" xmlns="http://www.w3.org/2000/svg">
<path d="M22.528 24.484C22.2333 24.8013 21.7687 25.13 21.134 25.47C20.4993 25.7873 19.7627 26.082 18.924 26.354C18.108 26.626 17.2693 26.8413 16.408 27C15.5467 27.1813 14.7307 27.272 13.96 27.272C11.92 27.272 10.084 26.9773 8.452 26.388C6.82 25.776 5.426 24.9373 4.27 23.872C3.114 22.784 2.23 21.5033 1.618 20.03C1.006 18.5567 0.7 16.9473 0.7 15.202C0.7 12.9127 1.04 10.9293 1.72 9.252C2.42267 7.552 3.36333 6.14667 4.542 5.036C5.74333 3.90267 7.11467 3.064 8.656 2.52C10.22 1.976 11.852 1.704 13.552 1.704C15.1613 1.704 16.6347 1.88533 17.972 2.248C19.3093 2.588 20.4427 3.01866 21.372 3.54L19.774 8.13C19.366 7.90333 18.822 7.67667 18.142 7.45C17.462 7.22333 16.7707 7.042 16.068 6.906C15.3653 6.74733 14.742 6.668 14.198 6.668C12.838 6.668 11.6367 6.838 10.594 7.178C9.55133 7.518 8.66733 8.028 7.942 8.708C7.23933 9.388 6.70667 10.238 6.344 11.258C5.98133 12.2553 5.8 13.4227 5.8 14.76C5.8 15.9387 6.004 17.004 6.412 17.956C6.82 18.8853 7.38667 19.6787 8.112 20.336C8.86 20.9933 9.73267 21.492 10.73 21.832C11.75 22.172 12.872 22.342 14.096 22.342C14.7987 22.342 15.4447 22.2967 16.034 22.206C16.6233 22.0927 17.122 21.9227 17.53 21.696V18.67H13.212V13.91H22.528V24.484ZM32.1404 27.714C30.8031 27.714 29.6811 27.306 28.7744 26.49C27.8678 25.6513 27.3918 24.5747 27.3464 23.26V12.142H32.1064V21.492C32.1518 22.1493 32.3218 22.682 32.6164 23.09C32.9111 23.4753 33.4098 23.668 34.1124 23.668C34.8151 23.668 35.4158 23.43 35.9144 22.954C36.4358 22.478 36.8324 21.832 37.1044 21.016C37.3991 20.1773 37.5464 19.2367 37.5464 18.194V12.142H42.3064V27H37.9884L37.6144 24.28L37.6824 24.586C37.3424 25.198 36.9118 25.742 36.3904 26.218C35.8691 26.694 35.2458 27.0567 34.5204 27.306C33.8178 27.578 33.0244 27.714 32.1404 27.714ZM52.0299 27.306C50.8059 27.306 49.6612 27.0907 48.5959 26.66C47.5532 26.2293 46.6692 25.6287 45.9439 24.858L47.9159 22.24C48.6412 22.8973 49.3099 23.3733 49.9219 23.668C50.5566 23.94 51.1232 24.076 51.6219 24.076C52.0072 24.076 52.3472 24.042 52.6419 23.974C52.9592 23.8833 53.2086 23.7587 53.3899 23.6C53.5712 23.4187 53.6619 23.192 53.6619 22.92C53.6619 22.5347 53.5032 22.2287 53.1859 22.002C52.8912 21.7753 52.5059 21.594 52.0299 21.458C51.5539 21.2993 51.0439 21.1407 50.4999 20.982C49.1399 20.5513 48.1539 19.928 47.5419 19.112C46.9526 18.2733 46.6579 17.3667 46.6579 16.392C46.6579 15.644 46.8506 14.896 47.2359 14.148C47.6439 13.3773 48.2786 12.7427 49.1399 12.244C50.0239 11.7227 51.1572 11.462 52.5399 11.462C53.7866 11.462 54.8406 11.5867 55.7019 11.836C56.5632 12.0853 57.3792 12.4933 58.1499 13.06L56.3479 15.848C55.9172 15.508 55.4299 15.2247 54.8859 14.998C54.3646 14.7487 53.8772 14.6127 53.4239 14.59C53.0159 14.5673 52.6646 14.6127 52.3699 14.726C52.0979 14.8393 51.8826 14.9867 51.7239 15.168C51.5652 15.3493 51.4859 15.542 51.4859 15.746C51.4632 16.1767 51.6219 16.5167 51.9619 16.766C52.3246 17.0153 52.7779 17.208 53.3219 17.344C53.8659 17.48 54.3986 17.6387 54.9199 17.82C55.6452 18.0467 56.2686 18.3527 56.7899 18.738C57.3112 19.1233 57.7079 19.588 57.9799 20.132C58.2746 20.6533 58.4219 21.288 58.4219 22.036C58.4219 22.9427 58.1839 23.804 57.7079 24.62C57.2546 25.4133 56.5519 26.0593 55.5999 26.558C54.6706 27.0567 53.4806 27.306 52.0299 27.306ZM63.8029 5.614H68.5629V12.074H72.1669V15.78H68.5629V27H63.8029V15.78H61.4909V12.074H63.8029V5.614ZM75.7898 27V0.173999H80.4478V15.134L80.4138 14.556C80.9351 13.6267 81.6718 12.8787 82.6238 12.312C83.5758 11.7227 84.7431 11.428 86.1258 11.428C87.5311 11.428 88.6985 11.8473 89.6278 12.686C90.5798 13.502 91.0671 14.5673 91.0898 15.882V27H86.3298V17.65C86.3071 16.9927 86.1258 16.4713 85.7858 16.086C85.4685 15.678 84.9245 15.474 84.1538 15.474C83.4285 15.474 82.7938 15.712 82.2498 16.188C81.7058 16.664 81.2865 17.31 80.9918 18.126C80.6971 18.942 80.5498 19.8827 80.5498 20.948V27H75.7898ZM94.8213 19.384C94.8213 17.8653 95.1726 16.5053 95.8753 15.304C96.6006 14.1027 97.6093 13.162 98.9013 12.482C100.193 11.7793 101.678 11.428 103.355 11.428C105.055 11.428 106.529 11.7793 107.775 12.482C109.022 13.162 109.974 14.1027 110.631 15.304C111.311 16.5053 111.651 17.8653 111.651 19.384C111.651 20.9027 111.311 22.274 110.631 23.498C109.974 24.6993 109.022 25.6513 107.775 26.354C106.529 27.0567 105.033 27.408 103.287 27.408C101.655 27.408 100.193 27.0907 98.9013 26.456C97.632 25.8213 96.6346 24.9033 95.9093 23.702C95.184 22.5007 94.8213 21.0613 94.8213 19.384ZM99.6153 19.418C99.6153 20.1887 99.774 20.8913 100.091 21.526C100.409 22.138 100.839 22.6253 101.383 22.988C101.927 23.3507 102.539 23.532 103.219 23.532C103.967 23.532 104.613 23.3507 105.157 22.988C105.701 22.6253 106.121 22.138 106.415 21.526C106.71 20.8913 106.857 20.1887 106.857 19.418C106.857 18.6247 106.71 17.922 106.415 17.31C106.121 16.698 105.701 16.2107 105.157 15.848C104.613 15.4853 103.967 15.304 103.219 15.304C102.539 15.304 101.927 15.4853 101.383 15.848C100.839 16.2107 100.409 16.698 100.091 17.31C99.774 17.922 99.6153 18.6247 99.6153 19.418Z" fill="#0D0E43"/>
</svg>
